<?xml version="1.0" encoding="UTF-8"?>
<svg id="Layer_2" data-name="Layer 2" xmlns="http://www.w3.org/2000/svg" viewBox="0 0 143.01 112.96">
  <defs>
    <style>
      .cls-1 {
        fill: #ffe0a8;
      }

      .cls-1, .cls-2, .cls-3, .cls-4, .cls-5 {
        stroke-width: 0px;
      }

      .cls-2 {
        fill: #ac0043;
      }

      .cls-3 {
        fill: #1e010d;
      }

      .cls-5 {
        fill: #7c0536;
      }
    </style>
  </defs>
  <g id="Layer_1-2" data-name="Layer 1">
    <g>
      <g>
        <g>
          <path class="cls-5" d="m15.54,15.03c-5.69-1.02-7.31-5.14-7.71-8.89-.53-4.93.85-9.1-4.4-3.39C2.17,4.11.73,6.56.15,10.07c-1.14,6.89,4.37,12.29,7.86,13.2,2.04-3.5,4.9-6.02,7.53-8.24Z"/>
          <path class="cls-5" d="m78.92,12.96c0-11.17,0,.74-10.6,4.05,1.57,2.39,2.81,5.09,3.59,8.16,4.46-1.5,7.01-6.99,7.01-12.21Z"/>
          <path class="cls-2" d="m136.51,52.99c1.11,1.66,2.22,4.74,2.22,6.34,0,9.2-10.33,6.97-17.89,7.34-8.02.4-5.54,15.47-16.11,15.47-5.68,0-3.86-10.35-14.22-9.06-4.14.52-8.22,10.42-20.23,10.42-7.26,0-11.57-5.83-11.57-10.86,0-5.76,2.92-6.97,5.44-12.11,5.47-10.37,8.7-15.86,8.7-27.66,0-2.8-.34-5.35-.94-7.71-.78-3.07-2.02-5.77-3.59-8.16C58.83,2.55,37.39-.12,33.49.58c-9.09,1.63-13.03,3.37-12.57,3.37.76,0,1.3,1.34,1.3,2.08,0,3.55-3.12,6-6.68,9.01-2.63,2.22-5.49,4.74-7.53,8.24-1.64,2.81-2.74,6.25-2.74,10.67,0,.26.51,14.33,4.71,27.61.08-.1,4.68-5.81,5.84-5.83.31,0,.43.22.54.42,2.54,4.83,3.44,5.77,3.66,5.95,1.21-.35,3.86-4.07,5.02-5.68l.32-.44.43.34c.78.62,2.04,2.52,3.26,4.36.68,1.02,1.56,2.35,2.03,2.89.89-1.09,1.67-2.06,2.35-2.92,2.69-3.37,3.92-4.92,5.32-4.81,1.39.1,2.37,1.75,4.52,5.37.43.73.92,1.54,1.46,2.44,3.93-1.06,7.98-4.23,7.98-8.24h1.04c0,4.67-4.71,8.3-9.14,9.34l-.37.09-.2-.32c-.63-1.02-1.17-1.95-1.66-2.77-1.78-3-2.85-4.8-3.7-4.86-.01,0-.03,0-.04,0-.86,0-2.2,1.68-4.39,4.42-.76.95-1.63,2.04-2.64,3.27-.12.15-.31.22-.49.22-.53-.03-1.03-.7-2.92-3.54-.88-1.33-1.95-2.93-2.66-3.74-2.88,4-4.33,5.48-5.47,5.63-.43.06-1.1.15-4.48-6.25-.71.51-2.43,2.29-3.74,3.75.23,1.91,1.2,5.5,1.45,6.7,1.38,6.74,10.38,45.62,42.11,45.62,15.75,0,25.03-9.86,30.95-10.4,5.93-.54,4.72,5.75,11.46,5.75,20.62,0,21.32-19.84,22.37-25.54,2.35-12.71,21.47-1.18,22.73-16.99.72-9.02-2.75-12-6.4-12.8Z"/>
        </g>
        <path class="cls-2" d="m10.17,62.16h0s-.12-.38-.12-.38c.04.13.08.25.12.38Z"/>
        <path class="cls-3" d="m9.97,61.56l.07.22c-.02-.07-.05-.15-.07-.22,0,0,0,0,0,0Z"/>
        <path class="cls-3" d="m52.69,55.4c0,4.01-4.05,7.18-7.98,8.24-.54-.89-1.02-1.7-1.46-2.44-2.15-3.62-3.13-5.27-4.52-5.37-1.39-.11-2.63,1.44-5.32,4.81-.68.86-1.46,1.83-2.35,2.92-.46-.54-1.35-1.87-2.03-2.89-1.22-1.84-2.49-3.75-3.26-4.36l-.43-.34-.32.44c-1.15,1.61-3.81,5.34-5.02,5.68-.23-.18-1.13-1.13-3.66-5.95-.11-.21-.22-.43-.54-.42-1.16.02-5.76,5.73-5.84,5.83.02.07.05.15.07.22l.12.37.12.36c.23-.35.83-1.06,1.55-1.86,1.31-1.46,3.03-3.24,3.74-3.75,3.38,6.4,4.04,6.31,4.48,6.26,1.13-.15,2.59-1.64,5.47-5.63.71.8,1.77,2.41,2.66,3.74,1.89,2.84,2.38,3.51,2.92,3.54.18,0,.37-.07.49-.22,1.02-1.23,1.89-2.32,2.64-3.27,2.19-2.75,3.53-4.42,4.39-4.42.02,0,.03,0,.04,0,.85.06,1.92,1.87,3.7,4.86.49.82,1.04,1.75,1.66,2.77l.2.32.37-.09c4.43-1.05,9.14-4.68,9.14-9.34h-1.04Z"/>
      </g>
      <path class="cls-1" d="m37.21,27.38c0,3.8-2.68,7.41-6.85,7.41s-8.26-3.6-8.26-7.41,3.38-6.88,7.55-6.88,7.55,3.08,7.55,6.88Z"/>
      <path class="cls-1" d="m38.55,27.64c0,4.39,3.88,7.14,7.74,7.14s5.58-3.52,5.58-7.22-3.13-6.7-7-6.7-6.33,3.07-6.33,6.77Z"/>
      <path class="cls-1" d="m62.07,41.45c0,3.68-3.97,6.66-7.81,6.66s-7.07-3.91-7.07-7.59,4.08-5.73,7.93-5.73,6.96,2.98,6.96,6.66Z"/>
      <path class="cls-1" d="m46.59,42.38c0,4.19-3.27,7.59-7.29,7.59s-8.11-5.26-8.11-9.45,3.67-6.57,7.7-6.57,7.7,4.24,7.7,8.43Z"/>
      <path class="cls-1" d="m29.66,42.55c0,4.75-3.29,7.42-7.94,7.42s-7.94-2.66-7.94-7.42,2.81-8.61,7.46-8.61,8.43,3.85,8.43,8.61Z"/>
      <path class="cls-4" d="m22.1,39.99c0,1.52-1.17,2.75-2.62,2.75s-2.62-1.23-2.62-2.75,1.17-2.75,2.62-2.75,2.62,1.23,2.62,2.75Z"/>
      <path class="cls-4" d="m30.44,26.3c0,1.36-1.12,2.46-2.49,2.46s-2.49-1.1-2.49-2.46,1.12-2.46,2.49-2.46,2.49,1.1,2.49,2.46Z"/>
      <path class="cls-4" d="m47.19,26.52c0,1.48-1.38,2.68-3.09,2.68s-3.09-1.2-3.09-2.68,1.38-2.68,3.09-2.68,3.09,1.2,3.09,2.68Z"/>
      <path class="cls-4" d="m54.63,40.33c0,1.34-1.05,2.42-2.34,2.42s-2.34-1.08-2.34-2.42,1.05-2.42,2.34-2.42,2.34,1.08,2.34,2.42Z"/>
      <path class="cls-4" d="m39.89,40.33c0,1.34-1.17,2.42-2.6,2.42s-2.6-1.08-2.6-2.42,1.17-2.42,2.6-2.42,2.6,1.08,2.6,2.42Z"/>
    </g>
  </g>
</svg>