<?xml version="1.0" encoding="UTF-8"?>
<svg id="Layer_2" data-name="Layer 2" xmlns="http://www.w3.org/2000/svg" viewBox="0 0 182.05 137.79">
  <defs>
    <style>
      .cls-1 {
        fill: #ffe0a8;
      }

      .cls-1, .cls-2, .cls-3, .cls-4, .cls-5, .cls-6, .cls-7, .cls-8 {
        stroke-width: 0px;
      }

      .cls-3 {
        fill: #aa5c7f;
      }

      .cls-4 {
        fill: #c6678e;
      }

      .cls-5 {
        fill: #290021;
      }

      .cls-6 {
        fill: #a5587b;
      }

      .cls-7 {
        fill: #f9ffd5;
      }

      .cls-8 {
        fill: #070f1b;
      }
    </style>
  </defs>
  <g id="Layer_1-2" data-name="Layer 1">
    <g>
      <g>
        <path class="cls-5" d="m177.15,54.13s-.01,0-.02-.02c1.43-.46,6.02,2.4,4.67,2-2.09-.62-3.9-.3-4.66-.37.03-.02.06-.04.09-.06.35-.37.43-1.08-.08-1.56Z"/>
        <path class="cls-5" d="m176.36,60.4c.26-.49.3-.84.19-1.15,1.65.53,4.05,6.22,2.78,4.97-2.21-2.19-2.53-2.11-3.92-3.16-.04-.03-.06-.08-.06-.14.47-.03.82-.18,1.01-.52Z"/>
        <path class="cls-5" d="m170.9,64.69c.18-.19.29-.43.34-.7,1.03,1.11.94,6.73.46,5.48-.73-1.89-2.36-3.87-2.73-5.28.84.71,1.46.99,1.94.49Z"/>
        <path class="cls-5" d="m161.38,65.19c.25.44,1.03,1.65,2.52,2.43,1.18.62-.83,1.82-4.92-2.21,1.08.76,2.35.38,2.41-.22Z"/>
      </g>
      <g>
        <path class="cls-5" d="m4.43,74.42s0-.01.01-.02c-1.49-.18-5.45,3.5-4.2,2.85,1.93-1,3.77-1.04,4.5-1.25-.03-.01-.07-.03-.1-.04-.41-.3-.63-.98-.22-1.54Z"/>
        <path class="cls-5" d="m6.39,80.42c-.35-.43-.46-.77-.41-1.09-1.52.83-2.79,6.88-1.79,5.41,1.75-2.57,2.08-2.55,3.25-3.85.03-.03.04-.09.03-.15-.46.06-.84-.02-1.09-.32Z"/>
        <path class="cls-5" d="m12.57,83.6c-.21-.15-.36-.37-.47-.62-.8,1.28.35,6.78.59,5.47.36-1.99,1.58-4.25,1.68-5.7-.69.86-1.25,1.25-1.81.85Z"/>
        <path class="cls-5" d="m22.02,82.29c-.16.48-.7,1.81-2.01,2.87-1.04.84,1.16,1.62,4.41-3.11-.92.95-2.24.82-2.4.24Z"/>
      </g>
      <path class="cls-4" d="m4.43,74.42s0-.01.01-.02c2.43-3.33,6.08-3.53,8.84-4.97,2.72-1.41,6.89-7.26,9.73-11.17,6.23-8.57,12.73-14.85,23-15.7.71-1.27,1.26-2.47,1.26-3.47,0-4.38-8.25-8.43-3.32-8.43,1.57,0,3.33-2.3,3.2-4.16-.12-1.65-2.44-10.39-10.48-10.39-.79,0-2.42-.06-2.42-.06-.99-1.42,6.89-6.13,13.82-6.13,5.22,0,9.72,2.82,9.72,2.82.22,0,.51,0,.61-.22,4.1-8.81,1.32-2.09,5.57-2.63,1.12-.14,2.47-.48,3.2-.48.05,0,4.64,1.23,7.2,1.23s4.99-.91,6.69-3.84c1.57,1.49,3.23,2.03,4.92,2.03,2.81,0,9.33-2.75,9.57-2.75,2.11,0,2.17,5.61,5.95,5.61,2.25,0,3.36-2.64,3.54-4.88.85,1.19,2.55,5.15,2.55,5.15,0,0,1.85-11.94,15.75-11.94,5.18,0,11.98,1.95,10.9,1.95-7.45,0-12.56,6.73-12.56,13.43,0,5.82,2.8,8.25,7.48,8.25.54,0,1.09-.04,1.63-.11-1.55.69-2.1,2.33-2.1,3.96,0,3.92,4.35,9.25,4.35,9.87,0,.39-.79.47-1.61.47-.56,0-1.13-.04-1.46-.04-.18,0-.28.01-.28.04,0,0,0,0,0,0,.36,1.18.75,2.35,1.15,3.52.71,2.04,1.46,4.07,2.19,6.08,2.07,5.7,3.93,11.34,3.93,17.16,0,7.82-3.81,11.29-4.02,14.77-.04.64.27,2.41.27,2.41-2.59,0-3.77-8.02-3.77-2.11,0,18.28,1.71,9.01-3.49,6.36-2.02,6.21-3.19,11.12-3.86,15-.87,5.03-.91,8.33-.85,10.46.08,2.97.34,3.7-1.24,3.71-5.48.06-7.46-9.76-7.46,2.98,0,20.86-1.96.21-1.96,12.87s.6,3.97-18.26,3.97c-2.89,0-5.78.25-8.62.74.88-4.84.66-11.44,7.26-11.66-1.54,0-2.42-1.54-3.96-1.76,3.41-.73,3.92-3.49,3.92-6.62,0-1.34-.09-2.74-.09-4.09,0-7.31-14.84,3.99-17.39,3.99s-2.75-3.82-4.45-6.29c-2.41,2.17-3.24,4.74-3.24,7.45,0,5.29.92,7.21.78,7.23-.14.02-.34-.51-1.96-1.35.44,4.84,1.78,6.69,1.78,11.54,0,.21-.42.66-.64.66,0,0-.01,0-.02,0-1.08-.12-2.17-.17-3.26-.17-4.91,0-11.77,1-16.48,1-3.12,0-9.18-.3-9.18-.3-.58-.46-.8-2.13-.8-2.96,0-2.16,3.64-7.26,7.04-8.8l-1.75-.9c.38-.12,1.14-.46,3.18-.46,2.24,0,3.16-.44,3.16-.44.1,0-2.76-5.86-2.76-10.43,0-5.17,3.68-6.05,3.68-9.26,0-10.69-8.77-10.08-9.71-11.49,4.61-2.44,4.96-7.56,4.96-12.83,0-.93-.01-1.86-.01-2.78,0-2.27.07-8.68,2.09-9.7-6.88,0,1.5-5.7,1.5-10.38,0-.21-.05-.36-.18-.4-1.6-.53-2.68-1.17-3.38-1.9-4.47,1.02-10.99,2.3-14.52,5.64-3.75,3.55-7.49,8.25-6.94,11.73.06.38,4.24,2.61,2.88,10.34-.13.76-.44,1.31-.8,1.69-.92.95-2.24.82-2.4.24-.02-.07-.03-.15-.01-.23.34-1.54-1.26-8.18-4.19-4.16-.34.46-.66.95-.99,1.41-1.02,1.4-1.79,2.63-2.45,3.44-.69.86-1.25,1.25-1.81.85-.21-.15-.36-.37-.47-.62-.46-1.15.05-3.15.51-4.41-1.54.57-3.73,2-5.14,2.17-.46.06-.84-.02-1.09-.32-.35-.43-.46-.77-.41-1.09.05-.32.24-.62.49-.97.07-.1.15-.2.22-.3.38-.53,2.64-2.58,2.16-2.7-.65-.16-3.33.97-4.12.65-.03-.01-.07-.03-.1-.04-.41-.3-.63-.98-.22-1.54Z"/>
      <path class="cls-1" d="m92.54,24.08c1.28,6.2-2.54,12.23-8.54,13.47-6,1.24-11.89-2.78-13.18-8.98-1.28-6.2,2.54-12.23,8.54-13.47,6-1.24,11.89,2.78,13.18,8.98Z"/>
      <path class="cls-1" d="m70.42,28.41c-1.04,5.74-6.16,9.61-11.44,8.65-5.27-.96-8.7-6.39-7.66-12.12,1.04-5.74,6.16-9.61,11.44-8.65,5.27.96,8.7,6.39,7.66,12.12Z"/>
      <path class="cls-2" d="m71.21,28.58c0,2.36,2.17,4.26,4.85,4.26s4.85-1.91,4.85-4.26-2.17-4.26-4.85-4.26-4.85,1.91-4.85,4.26Z"/>
      <path class="cls-2" d="m51.86,26.32c0,2.36,2.17,4.26,4.85,4.26s4.85-1.91,4.85-4.26-2.17-4.26-4.85-4.26-4.85,1.91-4.85,4.26Z"/>
      <g>
        <path class="cls-8" d="m58.74,44.55c.48-.08,1.57.74,1.93,1.13.12.13.24.26.37.38,0,.04,0,.08,0,.12,0,5.98,6.01,16.3,6.55,15.23,0,0,.91-3.91,3.03-7.68,1.24-2.21,4.51,5.81,5.8,5.81s1.99-5.61,1.99-7.17c0-2.37,7.4,7.76,7.4,7.76,2.85,0,2.94-9.91,2.94-11.63,0-2.03-.07-4.06-.15-6.09,1.36-.78,2.44-1.3,3.17-1.3,4.12,0,17.73,36.21,17.73,41.55,0,5.81-4.45,6.94-12.05,7.66-.05-7.41-2.94-14.81-7.43-20.55-2.97,7.77-2.39,10.68-2.88,10.98-.54.33-2.09-2.49-4.48-4.69-.83,1.65-2.06,8.88-2.06,8.88-6.63,0-6.04-21.14-11.8,3.39-10.41-2.47-9.8-14.96-9.8-1.72,0,3.28.55,7.43,1.72,10.95-1.82.52-3.81.87-5.69.87-6.48,0-8.08-3.76-8.08-11.22,0-1.78,8.78-42.2,11.79-42.68Z"/>
        <path class="cls-7" d="m68.8,88.34c5.76-24.52,5.17-3.39,11.8-3.39,0,0,1.23-7.22,2.06-8.88,2.38,2.2,3.93,5.03,4.48,4.69.49-.3-.09-3.21,2.88-10.98,4.48,5.74,7.38,13.14,7.43,20.55-8.35.79-20.5,1.09-34.76,6.58-.62.24-1.27.46-1.96.65-1.17-3.52-1.72-7.67-1.72-10.95,0-13.23-.61-.74,9.8,1.72Z"/>
        <path class="cls-7" d="m85.8,60.15s-7.4-10.13-7.4-7.76c0,1.56-.67,7.17-1.99,7.17s-4.56-8.02-5.8-5.81c-2.12,3.76-3.03,7.68-3.03,7.68-.53,1.07-6.55-9.25-6.55-15.23,0-.04,0-.08,0-.12,2.84,2.94,5.69,3.57,9.2,3.57,7.39,0,14.19-4.83,18.36-7.21.07,2.02.15,4.05.15,6.09,0,1.73-.09,11.63-2.94,11.63Z"/>
      </g>
      <path class="cls-4" d="m156.34,41.13c3.54,3.31,6.76,8.92,11.17,9.79,3.06.6,6.61.4,9.62,3.2,0,0,.01,0,.02.02.51.48.42,1.19.08,1.56-.02.02-.05.04-.09.06-.71.47-3.56-.14-4.16.15-.45.21,2.16,1.79,2.63,2.24.09.08.18.17.27.25.32.3.56.55.67.86.11.31.07.67-.19,1.15-.18.33-.54.48-1.01.52-1.41.1-3.83-.89-5.46-1.16.69,1.15,1.58,3.02,1.34,4.23-.05.27-.16.51-.34.7-.47.5-1.09.22-1.94-.49-.8-.67-1.79-1.73-3.06-2.92-.42-.39-.83-.8-1.24-1.19-3.63-3.39-3.94,3.43-3.32,4.88.03.08.04.15.03.23-.05.6-1.32.98-2.41.22-.43-.3-.83-.78-1.11-1.5-2.81-7.33.88-10.31.86-10.7-.12-3.53-2.91-6.22-7.29-8.95-5.02-3.12-13.15,1.43-18.39,3.16-.73-2.02-1.49-4.04-2.19-6.08,8.66-3.08,18.44-6.79,25.48-.21Z"/>
      <path class="cls-6" d="m122.1,101.01c2.44,2.56,5.57,4.28,9.24,4.39,12.15.36,11.86-19.78,11.86-5.39,0,3.75,6.73-5.13,6.73-11.95,0-8.84-9.46-15.08-9.46-23.38,0-3.85,1.96-9.08,6.83-9.08.63,0,1.28.02.46.02-2.59,0-3.12,2.52-3.12,5.12,0,7.95,7.68,13.49,9.95,20.92,2.65,8.69-.28,3.26,2.49-2.25.74,3.94.92,7.12.92,11.18,0,11.92-4.58,21.88-17.41,24.16-3.84.68,2.44,1.66,2.91,4.01-5.38-1.7-15.6-3.33-22.24-7.3-.06-2.13-.02-5.43.85-10.46Z"/>
      <path class="cls-3" d="m70.71,27.87c-.87-5.95,2.89-11.57,8.66-12.76,3.71-.77,7.38.48,9.95,3.01.28.28.56.58.81.89l-19.42,8.86Z"/>
      <path class="cls-3" d="m70.52,27.8c.7-5.5-2.67-10.58-7.75-11.51-3.21-.58-6.36.62-8.57,2.95-.64.68-1.21,1.45-1.67,2.3l18,6.26Z"/>
    </g>
  </g>
</svg>