<?xml version="1.0" encoding="UTF-8"?>
<svg id="Layer_2" data-name="Layer 2" xmlns="http://www.w3.org/2000/svg" viewBox="0 0 139.22 135.05">
  <defs>
    <style>
      .cls-1 {
        fill: #ffe0a8;
      }

      .cls-1, .cls-2, .cls-3, .cls-4, .cls-5, .cls-6, .cls-7, .cls-8, .cls-9 {
        stroke-width: 0px;
      }

      .cls-2 {
        fill: #4a5500;
      }

      .cls-4 {
        fill: #35641c;
      }

      .cls-5 {
        fill: #407421;
      }

      .cls-6 {
        fill: #d3c5a9;
      }

      .cls-7 {
        fill: #989c34;
      }

      .cls-8 {
        fill: #bec350;
      }

      .cls-9 {
        fill: #939b45;
      }
    </style>
  </defs>
  <g id="Layer_1-2" data-name="Layer 1">
    <g>
      <path class="cls-7" d="m84.71,87.84c0,5.17.86,9.27.86,11.97,0,5.72-5.59,10.22-5.59,12.03,0,.54,14.06,1.87,16.68,10.38h17.58c3.15,0,13.47-1.51,13.47-3.74,0-6.11-9.23-10.7-12.73-10.89-.08,0,3.49-10.42,3.69-18.64.07-3.02-.33-6.46-1.53-9.32-3.93,2.51-9.07,4.21-15.8,4.21-10.86,0-16.63-10.72-16.63,4Z"/>
      <path class="cls-5" d="m101.35,83.84c-10.86,0-16.63-10.72-16.63,4,0,5.17.86,9.27.86,11.97,0,5.72-5.59,10.22-5.59,12.03,0,.38,7.17,1.18,12.22,4.7,7.22-.66,10.93-2.68,14.98-7.85,2.07-2.65,4.26-6.56,5.08-11.11,1.04-5.77,2.27-10.26,1.12-15.99-1.67.7-3.51,1.27-5.54,1.66-1.98.38-4.14.59-6.5.59Z"/>
      <path class="cls-2" d="m69.98,28.24c-6.15-.53-9.53-2.62-11.05-8.02-2.45-8.69,8.35-15.56,8.35-15.65,0-.52-1.25-.79-2.7-.79-5.77,0-15.44,6.79-15.44,19.44,0,11.95,8.64,19.9,14.36,19.9,4.89,0,9.99-2.46,9.99-8.13,0-4.37-1.41-5.17-3.51-6.75Z"/>
      <path class="cls-4" d="m55.72,46.82c-8.28,0-17.03,8.44-18.97,16.36,0,0,0,0,0,.01,0,.08.2.14.44.14.02,0,7.11-5.1,13.75-5.1.73,0,1.45.07,2.15.19.63-3.9,1.5-7.81,2.63-11.6h0Z"/>
      <path class="cls-4" d="m51.96,68.69c-.56-.12-1.15-.19-1.76-.19-14.81,0-17.98,16.97-18.79,19.48,4.89-3.67,6.6-8.07,16.15-8.07,1.63,0,3.09.35,4.36.9-.09-2.04-.14-4.13-.14-6.19,0-1.94.06-3.92.18-5.94Z"/>
      <path class="cls-4" d="m52.19,86.94c-6.74,0-8.52,3.12-9.76,9.31,1.47-1.21,3.14-2.38,4.96-2.38.97,0,3.24.78,5.53,2.22-.13-2.26-.41-5.48-.66-9.15-.02,0-.05,0-.07,0Z"/>
      <path class="cls-6" d="m127.1,57.53c-.72-2-1.95-3.96-3.2-5.4-.59-.68-1.19-1.25-1.74-1.65-.37-.27-.27.71-.04,2.08.23,1.42.59,3.28.68,4.63.04.68-.02,1.31-.14,1.92,1.85-.5,3.31-1.08,4.44-1.58Z"/>
      <g>
        <path class="cls-2" d="m139.22,19.44c0-12.65-9.68-19.44-15.44-19.44-1.45,0-2.7.27-2.7.79,0,.1,10.8,6.97,8.35,15.65-1.17,4.14-4.49,7.13-8.74,8.55,3.37,3.63,5.83,7.62,7.58,11.29,5.27-2.35,10.96-8,10.96-16.84Z"/>
        <path class="cls-8" d="m122.16,50.48c.55.4,1.15.97,1.74,1.65,2.02-.53,3.99-1.17,5.84-1.94.85-.35,1.42-.53,2.05-.83.1-.43.08-.79.08-1.16,0-1.7-1.01-6.44-3.61-11.91-1.75-3.67-4.21-7.66-7.58-11.29-6.11-6.58-15.18-11.95-28.29-11.95-19.82,0-31.25,15.57-36.68,33.78-1.13,3.79-2,7.7-2.63,11.6-.56,3.45-.93,6.9-1.13,10.27-.12,2.01-.18,4-.18,5.94,0,2.06.06,4.14.14,6.19.09,2.11.21,4.18.35,6.12.25,3.66.52,6.88.66,9.15.05.83.08,1.53.08,2.08,0,12.66-12.53,20.13-21.99,20.13-16.61,0-21.04-18.82-21.22-26.39-.15-6.22,2.77-17.59,7.94-17.59s3.88,7.43,3.88,8.59c2.58-.11,4.55-3.74,3.51-8.59-1.48-6.89-6.35-8.19-10.43-6.99-8.94,2.62-14.66,15.95-14.66,27.35,0,21.04,9.6,40.38,30.56,40.38,8.61,0,16.77-3.35,23.51-8.63,6.96.65,14.1,1.36,21.13,1.36,7.42,0,21.82.31,21.87-2.47.02-1.12-.13-2.15-.42-3.09-.75-2.43-2.43-4.28-4.45-5.68-5.05-3.52-12.22-4.31-12.22-4.7,0-1.8,5.59-6.3,5.59-12.03,0-2.7-.86-6.81-.86-11.97,0-14.72,5.78-4,16.63-4,2.36,0,4.52-.21,6.5-.59,2.03-.39,3.86-.96,5.54-1.66,1.36-.57,2.62-1.23,3.76-1.96,10.64-6.8,13.03-18.94,13.03-20.26,0-2.78.11-3.32-.84-2.9-.52.24-1.25.62-2.23,1.06-1.13.5-2.59,1.08-4.44,1.58-4.46,1.21-11.2,2-21.07.39-.76-.12-1.54-.26-2.34-.41-1.06-.21-2.03-.46-2.9-.73-4.02-1.27-5.91-3.05-5.19-3.32.74-.28,3.52-.24,7.45-.28.43-1.13.67-2.35.67-3.66s.82.63,1.51,3.63c6.01-.1,13.94-.48,21.32-2.17-.23-1.38-.33-2.35.04-2.08Z"/>
      </g>
      <path class="cls-6" d="m100.8,54.74c-.69-3-1.51-4.9-1.51-3.63s-.24,2.53-.67,3.66c-.51,1.33-1.28,2.53-2.25,3.6.87.27,1.83.53,2.9.73.8.15,1.58.29,2.34.41-.17-1.69-.47-3.35-.8-4.77Z"/>
      <ellipse class="cls-1" cx="88.41" cy="33.28" rx="11.19" ry="9.83"/>
      <ellipse class="cls-1" cx="113" cy="34.14" rx="9.16" ry="8.98"/>
      <path class="cls-3" d="m97.88,32.66c0,1.47-1.35,2.67-3.01,2.67s-3.01-1.2-3.01-2.67,1.35-2.67,3.01-2.67,3.01,1.2,3.01,2.67Z"/>
      <path class="cls-3" d="m119.03,32.66c0,1.47-1.35,2.67-3.01,2.67s-3.01-1.2-3.01-2.67,1.35-2.67,3.01-2.67,3.01,1.2,3.01,2.67Z"/>
      <path class="cls-9" d="m75.84,95.77c-.1,0-.2,0-.31,0-12.58,0-15.88-18.77-15.88-26.87,0-3.87,1.39-10,5.46-10,2.43,0,2.15,1.85,2.15,3.15,0,1.89-.08,3.98-.08,6.09,0,7.59.99,15.54,10.04,16.26.55.04.84.72.84,1.36,0,1.51-1.94,1.96-1.94,2.38,0,.52.8,1.52,1.96,1.52.84,0,1.06-1.07,1.06,1.21,0,2.4-1.17,4.85-3.29,4.9Z"/>
    </g>
  </g>
</svg>