<?xml version="1.0" encoding="UTF-8"?>
<svg id="Layer_2" data-name="Layer 2" xmlns="http://www.w3.org/2000/svg" viewBox="0 0 108.52 90.59">
  <defs>
    <style>
      .cls-1 {
        fill: #2b3804;
      }

      .cls-1, .cls-2, .cls-3, .cls-4, .cls-5 {
        stroke-width: 0px;
      }

      .cls-2 {
        fill: #6dac00;
      }

      .cls-4 {
        fill: #517a03;
      }

      .cls-5 {
        fill: #f9ffd5;
      }
    </style>
  </defs>
  <g id="Layer_1-2" data-name="Layer 1">
    <g>
      <path class="cls-2" d="m108.23,85.75c.21-.21.29-.43.29-.64,0-.4-.9-4.27-6.41-4.27-2.39,0-5,.59-7.17.67,0,0-.02,0-.03,0-.54,0-1.04-.56-1.08-.92-.52-4.98-3.66-6.25-7.47-6.25-1.79,0-4.1.34-4.1.34-.98,0-1.73-1.7-1.73-2.63,0-.02.07-.79.07-1.41,0-13.75-17.76-3.02-17.76-16.38,0-7.64,11.54-20.06,11.54-32.03,0-10.42-8.79-22.23-31.98-22.23C15.69,0,3.69,17.81,3.69,35.84c0,12.94,6.39,26.58,6.39,26.58,0,1.68-3.11.25-3.11,5.01,0,.8.07,1.62.07,2.38,0,5.29-7.04,4.64-7.04,11.31,0,5.77,5.13,6.07,13.06,6.07,3.74,0,7.44-.27,11.13-.27,11.77,0,15.45,3.67,24.15,3.67,7.29,0,13.32-4.02,19.51-4.02,4.89,0,6.63,3.3,16.07,3.3,5.97,0,11.89-1.58,17.67-3.39,2.23-.7,4.43-.74,6.65-.74Z"/>
      <path class="cls-5" d="m35.84,31.81c.7,3.29,4.07,5.32,7.53,4.53,3.46-.79,5.69-4.1,4.99-7.39-.7-3.29-4.09-5.58-7.54-4.79-3.46.79-5.68,4.36-4.97,7.65Z"/>
      <path class="cls-3" d="m40.97,29.47c-.23-1.04-1.37-1.67-2.55-1.41-1.18.26-1.95,1.31-1.72,2.35.23,1.04,1.37,1.67,2.55,1.41,1.18-.26,1.95-1.31,1.72-2.35Z"/>
      <path class="cls-4" d="m34.99,29.54c.95-4.15,3.15-6.43,7.14-6.45,2.77-.02,5.64,1.61,6.76,4.97l-13.91,1.49Z"/>
      <path class="cls-5" d="m17.72,32.43c.68,3.11,3.96,5.02,7.33,4.28,3.36-.75,5.54-3.88,4.86-6.98-.68-3.11-3.98-5.27-7.34-4.52-3.36.75-5.52,4.12-4.84,7.23Z"/>
      <path class="cls-3" d="m22.5,29.84c-.23-1.04-1.37-1.67-2.55-1.41-1.18.26-1.95,1.31-1.72,2.35.23,1.04,1.37,1.67,2.55,1.41,1.18-.26,1.95-1.31,1.72-2.35Z"/>
      <path class="cls-4" d="m16.89,30.29c.92-3.92,3.07-6.07,6.95-6.1,2.69-.02,5.49,1.53,6.58,4.69l-13.54,1.4Z"/>
      <path class="cls-5" d="m26.13,21.65c.62,3.29,3.58,5.32,6.63,4.53,3.04-.79,5.01-4.1,4.39-7.39-.62-3.29-3.6-5.58-6.64-4.79-3.04.79-5,4.36-4.38,7.65Z"/>
      <path class="cls-3" d="m31.37,19.31c-.23-1.04-1.37-1.67-2.55-1.41-1.18.26-1.95,1.31-1.72,2.35.23,1.04,1.37,1.67,2.55,1.41,1.18-.26,1.95-1.31,1.72-2.35Z"/>
      <path class="cls-4" d="m25.39,19.38c.83-4.15,2.78-6.43,6.29-6.45,2.44-.02,4.97,1.61,5.96,4.97l-12.24,1.49Z"/>
      <path class="cls-1" d="m46.36,51.73c.34-.09,2.6.18,2.91-2.68.26-2.44-3.14-5.05-5.03-3.82-1.04.68-1.31.83-2,.97-1.92.39-1.61-2.69-4.2-2.4-1.75.19-1.06,2.94-3.33,3.07-2.26.13-2.19-3.24-4.19-3.24-3.35,0-1.96,2.86-4.75,2.86-1.96,0-2.52-2.37-4.19-2.11-3.76.58-1.88,3.93-5.18,5.02-.98.32-2.1,1.49-1.95,2.79.32,2.73,2.2,1.62,4.69,2.99.96.53,2.24,3.07,4.42,3.35,1.95.25,3.11-2.73,4.62-2.73,1.38,0,1.6,1.81,3.17,1.81,2.07,0,2.52-3.64,4.71-3.64,2.53,0,2.68,2.8,4.91,2.8,3.65,0,2.1-4.17,5.39-5.03Z"/>
    </g>
  </g>
</svg>