<?xml version="1.0" encoding="UTF-8"?>
<svg id="Layer_2" data-name="Layer 2" xmlns="http://www.w3.org/2000/svg" viewBox="0 0 159.02 148.13">
  <defs>
    <style>
      .cls-1 {
        fill: #ffe0a8;
      }

      .cls-1, .cls-2, .cls-3, .cls-4, .cls-5, .cls-6, .cls-7, .cls-8, .cls-9 {
        stroke-width: 0px;
      }

      .cls-2 {
        fill: #c18600;
      }

      .cls-3 {
        fill: #ff9c20;
      }

      .cls-4 {
        fill: #291100;
      }

      .cls-6 {
        fill: #750e06;
      }

      .cls-7 {
        fill: #350005;
      }

      .cls-8 {
        fill: #ffeecd;
      }

      .cls-9 {
        fill: #8b0f00;
      }
    </style>
  </defs>
  <g id="Layer_1-2" data-name="Layer 1">
    <g>
      <g>
        <path class="cls-2" d="m27.02,123s0-.01,0-.02c-1.05.59-1.89,4.84-1.38,3.83.78-1.56,1.96-2.45,2.33-2.93-.03,0-.06.02-.08.02-.41,0-.87-.34-.87-.9Z"/>
        <path class="cls-2" d="m31.12,125.97c-.43-.11-.66-.28-.78-.52-.6,1.25,1.43,5.77,1.39,4.35-.07-2.49.15-2.64.29-4.03,0-.04-.01-.07-.05-.11-.27.26-.56.38-.85.31Z"/>
        <path class="cls-2" d="m36.62,125.12c-.21,0-.41-.07-.59-.18.09,1.21,3.42,4.23,2.96,3.27-.7-1.46-.98-3.5-1.59-4.49-.04.88-.22,1.4-.77,1.4Z"/>
        <path class="cls-2" d="m42.13,119.82c.12.38.4,1.5.05,2.81-.28,1.03,1.52.51,1.4-4.09-.15,1.05-1.07,1.58-1.44,1.29Z"/>
      </g>
      <g>
        <path class="cls-2" d="m145.18,105.78s0-.01,0-.02c1.19.16,3.53,3.81,2.69,3.06-1.3-1.17-2.72-1.56-3.24-1.87.03,0,.06,0,.08-.02.38-.15.68-.63.48-1.15Z"/>
        <path class="cls-2" d="m142.45,110.04c.36-.26.51-.5.54-.77,1.01.95.79,5.9.3,4.55-.84-2.34-1.1-2.4-1.75-3.64-.02-.03-.01-.07,0-.12.35.14.66.15.91-.03Z"/>
        <path class="cls-2" d="m137.02,111.27c.2-.08.36-.21.49-.39.36,1.16-1.63,5.19-1.56,4.12.12-1.62-.37-3.61-.16-4.76.36.81.72,1.22,1.23,1.02Z"/>
        <path class="cls-2" d="m129.96,108.36c.03.4.18,1.55.98,2.63.64.86-1.23,1.03-2.8-3.3.52.92,1.57,1.08,1.82.67Z"/>
      </g>
      <path class="cls-6" d="m29.39,105.57c0,3.88,2.12,7.83,1.03,10.03-1.11,2.23-3.38,4.09-3.39,7.39,0,0,0,.01,0,.02,0,.56.46.9.87.9.03,0,.05,0,.08-.02.66-.16,1.86-2.16,2.36-2.36.37-.15-.13,2.24-.13,2.77,0,.1,0,.2,0,.3,0,.35.02.63.14.86.12.23.35.41.78.52.3.08.58-.05.85-.31.83-.77,1.58-2.73,2.31-3.83.3,1.03.9,2.57,1.74,3.1.19.12.39.18.59.18.55,0,.73-.52.77-1.4.04-.83-.04-2-.04-3.38,0-.46-.02-.92-.02-1.38,0-3.98,4.16-.43,4.67.73.03.06.07.11.11.14.38.3,1.3-.24,1.44-1.29.06-.42,0-.91-.27-1.47-2.76-5.65-6.52-5.12-6.74-5.34-2-2-2.96-5.01-2.2-9.08.67-3.57,3.31-7.2,5.46-9.92-.98-2.74-1.81-5.6-2.45-8.56-6.67,5.43-7.99,12.7-7.99,21.41Z"/>
      <path class="cls-6" d="m145.18,105.78s0-.01,0-.02c-1.22-3.07-4-3.96-5.86-5.63-1.83-1.64-1.3-6.1-2.72-9.71-3.29-8.34-7.32-14.76-16.03-17.22-.08,2.67-.29,5.28-.6,7.82,3.02,1.75,8.48,4.59,10.93,8.5,2.2,3.5,2.41,6.66,1.28,9.25-.12.28-3.81,1.17-4.31,7.44-.05.62.08,1.1.28,1.47.52.92,1.57,1.08,1.82.67.03-.05.05-.11.05-.18.05-1.26,2.62-6.09,4.08-2.39.17.43.32.87.49,1.29.51,1.29.86,2.4,1.21,3.16.36.81.72,1.22,1.23,1.02.19-.08.35-.21.49-.39.59-.8.59-2.45.49-3.52,1.08.75,2.49,2.3,3.55,2.72.35.14.66.15.91-.03.36-.26.51-.5.54-.77.03-.25-.06-.53-.19-.85-.04-.09-.07-.19-.11-.28-.19-.49-1.53-2.53-1.14-2.52.54,0,2.39,1.42,3.06,1.33.03,0,.06,0,.08-.02.38-.15.68-.63.48-1.15Z"/>
      <path class="cls-6" d="m54.14,124.39c0,9.17,4.4,9.62,7.07,15.45.14.3.9,1.15-2.12,1.15-3.2,0-3.57-1.38-5.72-1.38-2.94,0-4.94,2.28-4.94,4.59,0,.67.31,1.79.94,1.79.6,0,1.41-.81,2.16-.81,1.34,0,.1,2.15,2.17,2.15.31,0,2.88-1.27,5.13-1.27,1.92,0,5.42.46,5.86.48.36.01,2.31.14,2.31-3.72,0-5.77-6.5-6.52-6.5-16.14,0-2.26.34-4.62.52-6.82-2.18-1.26-4.26-2.75-6.22-4.46-.31,3.09-.65,7.04-.65,8.97Z"/>
      <path class="cls-6" d="m100.21,125.34c0,9.62-6.42,10.36-6.42,16.13,0,3.86,1.91,3.37,3.2,3.84.67.25,2.82.75,4.61,1.45,3.93,1.54,4.81,1.37,5.13,1.37,2.08,0,.84-2.15,2.17-2.15.75,0,1.6,1.03,2.16.81,2.25-.91.79-3.37.83-3.39,2.22-1.37-1.31-3.63-3.29-3.63-2.15,0-3.7-.14-6.9-.14-3.02,0-2.27-.66-2.07-1.2.2-.54,6.32-7.72,6.93-15.4.17-2.09-.33-6.55-.7-9.72-1.89,1.91-3.95,3.6-6.19,5.05.17,2.25.53,4.66.53,6.98Z"/>
      <g>
        <path class="cls-3" d="m40.13,16.93c-.31,0-1.32-1.4-.32,1,.79,1.88.71,2.13,6.46,14.08,1.53-2.28,3.2-4.39,4.99-6.31-4.69-2.05-10.98-8.77-11.13-8.77Z"/>
        <path class="cls-3" d="m95.74,1.64c-.11,0-5.61,7.21-9.83,11.96,2.67.55,5.21,1.4,7.61,2.53,1.32-6.5,3.57-14.41,2.22-14.48Z"/>
        <path class="cls-3" d="m119.31,24.55s0,0,0,0c0-.04-.06-.06-.14-.06-.15,0-6.63,2.61-11.15,3.74,1.09,1.44,2.11,2.95,3.07,4.54,3.71-2.7,7.65-6.28,8.23-8.21Z"/>
        <path class="cls-3" d="m53.11,18.32c-.08.2.64,2.18.82,4.73.92-.84,1.87-1.64,2.84-2.39-1.87-1.25-3.55-2.64-3.66-2.35Z"/>
        <path class="cls-3" d="m63.07,0c-.24,0-.2-.02-.2.34,0,3.93.73,8.23.73,12.37,0,1.37-.11,2.67-.29,3.86,2.28-1.13,4.66-2.02,7.11-2.64C67.42,8.71,63.43,0,63.07,0Z"/>
        <path class="cls-3" d="m105.35,25.01c.57-1.05,1.11-2.22,1.11-3.38,0-.68-1.39.43-2.78,1.65.57.56,1.13,1.14,1.67,1.73Z"/>
        <path class="cls-3" d="m81.13,12.96c-.12-1.84-.4-3.69-.47-4.17-.24-1.63-.57-3.84-1.32-3.84-1.18,0-2.37,4.42-3.54,8.07.66-.06,1.33-.1,2.01-.12,1.13-.03,2.23,0,3.32.06Z"/>
        <g>
          <path class="cls-7" d="m35.92,63.68c-6.96-.46-8.46-7.31-8.46-13.64,0-1.77.12-3.5.26-5.04,0-.02,0-.04,0-.06,0-.82-.67-1.58-2.15-1.58-4.61,0-7.17,10.31-10.01,15.99-3.31,6.61-9,11.18-15.56,14.35,3.4,0,6.57-.24,9.73-1.46-4.31,12.08-4.47,10.39-1.32,10.39,9.2,0,19.46-7.52,19.47-7.52,1.73,0,2.56,2.85,2.76,4.42.64-3.53,2.35-6.73,5.18-8.23-.03-.86-.07-1.72-.07-2.59,0-1.7.06-3.37.17-5.03Z"/>
          <path class="cls-7" d="m159.02,55.7c-8.69-.8-13.12-3.22-17.12-9.5-3.41-5.36-7.32-13.16-11.61-14.87-2.84-1.13-3.79,5.82-3.61,7.58.68,6.51-3.87,14.75-8.13,12.9.58,2.54,1.05,5.15,1.38,7.82,4.66-.1,7.74,3.68,9.05,8.2.03-1.59.57-4.51,2.29-4.68,0,0,11,6.41,20.15,5.46,3.13-.33,3.15,1.37-2.39-10.2,3.27.88,7.31-.53,9.98-2.72Z"/>
          <path class="cls-9" d="m119.94,59.64c-.34-2.66-.8-5.27-1.38-7.82-1.6-7-4.12-13.49-7.48-19.07-.95-1.59-1.98-3.1-3.07-4.54-.85-1.12-1.73-2.19-2.66-3.21-.54-.6-1.1-1.18-1.67-1.73-3.03-2.97-6.42-5.39-10.16-7.15-2.4-1.13-4.94-1.98-7.61-2.53-1.55-.32-3.14-.53-4.78-.63-1.09-.07-2.2-.09-3.32-.06-.67.02-1.34.06-2.01.12-1.83.16-3.63.46-5.39.91-2.45.62-4.83,1.51-7.11,2.64-2.28,1.13-4.46,2.5-6.53,4.09-.97.75-1.92,1.54-2.84,2.39-.92.84-1.81,1.72-2.67,2.65-1.79,1.92-3.46,4.04-4.99,6.31-5.76,8.59-9.53,19.52-10.35,31.67-.11,1.65-.17,3.33-.17,5.03,0,.87.04,1.73.07,2.59.15,4.44.68,8.75,1.57,12.86.64,2.96,1.46,5.82,2.45,8.56,3.34,9.27,8.54,17.12,14.97,22.71,1.97,1.71,4.05,3.2,6.22,4.46,5.14,2.97,10.82,4.63,16.79,4.63,8.5,0,15.81-2.21,21.87-6.15,2.23-1.46,4.3-3.15,6.19-5.05,7.67-7.75,12.44-19.03,14.09-32.28.32-2.54.52-5.15.6-7.82.03-.97.05-1.94.05-2.92,0-3.61-.23-7.17-.67-10.65Z"/>
        </g>
      </g>
      <path class="cls-4" d="m103.79,53.4c.81,1.58,1.24,3.98,1.24,6.7,0,2.52-1.12,5.83-3.91,5.58-.37-.03-2.38-7.15-3.92-9.62-.55.47-1.11.97-1.71,1.48-.07.76-.11,1.74-.11,2.96,0,1.49.44,3.83-2.33,4.12-1.05.11-3.14-1.18-4.13-2.81,0,0,0,0,0,0-.28.11-.54.21-.81.3-.35,1.87-1.34,3.29-3.32,3.29-1.44,0-2.8-.85-3.9-2.01-.97-.05-1.81-.18-2.67-.23-.77,1.75-2.13,3.06-3.46,3.35-4.64,1.03-6.45-2.05-7-4.09-.52-.09-1.01-.18-1.49-.28-.79,1.43-2.03,2.82-3.95,2.82-1.12,0-2.76-.32-3.42-3.6-.13-.66-.23-1.31-.28-1.96-.34-.17-.66-.34-.99-.51-1.6,3.4-4.18,9.1-6.63,8.94-3.29-.22-3.55-5.43-3.55-7.57,0-1.36.17-2.71.64-3.92-4.15.56-5.24,7.23-5.24,11.02,0,4.23,1.68,6.95,3.62,8.62.32-2.62,1.37-5.03,3.07-5.03,0,0,2.55,3.43,4.39,6.03,3.37-1.49,10.39-3.8,21.61-3.8,5.92,0,11.25.82,15.18,1.67,1.9-2.27,4.26-4.11,5.44-6.91,1.83,2.05,3.37,5.11,3.37,7.87,0,.17,0,.34-.02.51,7-2.13,8.93-14.06,8.93-18.02,0-2.82-2.36-4.44-4.62-4.91Z"/>
      <path class="cls-8" d="m80.88,63.4c1.1,1.16,2.47,2.01,3.9,2.01,1.97,0,2.97-1.42,3.32-3.29-3.37,1.24-5.5,1.38-7.22,1.28Z"/>
      <path class="cls-8" d="m58.9,61.38c.66,3.29,2.3,3.6,3.42,3.6,1.93,0,3.16-1.39,3.95-2.82-3.42-.73-5.71-1.75-7.65-2.74.05.65.14,1.3.28,1.96Z"/>
      <path class="cls-8" d="m93.05,64.62c2.77-.29,2.33-2.64,2.33-4.12,0-1.22.04-2.19.11-2.96-1.83,1.57-3.93,3.22-6.57,4.27.99,1.63,3.08,2.92,4.13,2.81Z"/>
      <path class="cls-8" d="m67.76,62.44c.55,2.04,2.36,5.12,7,4.09,1.33-.29,2.7-1.6,3.46-3.35-.22-.01-.43-.02-.66-.02-4.03,0-7.22-.28-9.8-.71Z"/>
      <path class="cls-8" d="m51.01,67.84c2.44.16,5.03-5.54,6.63-8.94-2.65-1.39-4.85-2.59-8.97-2.59-.2,0-.39.02-.57.04-.46,1.21-.64,2.56-.64,3.92,0,2.14.26,7.35,3.55,7.57Z"/>
      <path class="cls-8" d="m97.19,56.06c1.54,2.47,3.55,9.59,3.92,9.62,2.79.25,3.91-3.06,3.91-5.58,0-2.72-.43-5.12-1.24-6.7-.47-.1-.93-.15-1.37-.15-1.76,0-3.39,1.23-5.23,2.81Z"/>
      <path class="cls-8" d="m96.15,67.95c-1.17,2.8-3.54,4.63-5.44,6.91,4.13.89,6.69,1.8,6.69,1.8.74-.01,1.43-.13,2.09-.33.01-.17.02-.34.02-.51,0-2.76-1.53-5.82-3.37-7.87Z"/>
      <path class="cls-8" d="m46.47,75.98c1.89,1.63,4.03,2.24,5.06,2.24,0,0,.78-.53,2.39-1.24-1.84-2.6-4.39-6.03-4.39-6.03-1.7,0-2.74,2.41-3.07,5.03Z"/>
      <path class="cls-1" d="m67.99,40.67c0,4.78-4.4,9.09-9.42,9.09s-8.76-3.11-8.76-7.89,4.07-9.86,9.09-9.86,9.09,3.87,9.09,8.66Z"/>
      <path class="cls-1" d="m93.3,42.2c0,4.18-3.8,7.41-8.49,7.56-3.34.11-8.38-4.15-8.38-8.33s3.69-6.79,8.38-6.79,8.49,3.38,8.49,7.56Z"/>
      <path class="cls-5" d="m62.62,40.34c0,1.33-1.35,2.41-3.01,2.41s-3.01-1.08-3.01-2.41,1.35-2.41,3.01-2.41,3.01,1.08,3.01,2.41Z"/>
      <path class="cls-5" d="m88.26,41.33c0,1.39-1.32,2.52-2.96,2.52s-2.96-1.13-2.96-2.52,1.32-2.52,2.96-2.52,2.96,1.13,2.96,2.52Z"/>
    </g>
  </g>
</svg>