
        <svg xmlns="http://www.w3.org/2000/svg" xmlns:xlink="http://www.w3.org/1999/xlink" version="1.1" width="3306.763533010688" 
        height="3258.6877483380676" viewBox="0 0 3306.763533010688 3258.6877483380676">
			<rect fill="#c5f0a4" width="3306.763533010688" height="3258.6877483380676"/>
			<g transform="scale(15.338176650534411) translate(10, 10)">
				<defs id="SvgjsDefs1613"></defs><g id="SvgjsG1614" featureKey="ECw45b-0" transform="matrix(1.3863502740859985,0,0,1.3863502740859985,29.182494860795934,10)" fill="#111111"><polygon xmlns="http://www.w3.org/2000/svg" points="17.788,82.432 17.788,67.929 24.324,64.704 30.771,67.929 37.219,64.704 43.665,67.929 49.982,64.704   56.442,67.929 62.862,64.704 69.285,67.929 75.704,64.704 82.213,67.929 82.213,82.432 62.351,100 38.289,100 "></polygon><path xmlns="http://www.w3.org/2000/svg" d="M95.743,11.83l-14.146,3.304l-2.133,11.559l-10.303,2.8c-5.353-4.062-11.977-6.467-19.148-6.467  c-7.175,0-13.8,2.407-19.153,6.474l-10.325-2.806l-2.131-11.559L4.257,11.83L1.311,0v14.821l12.619,3.625l2.131,11.558l9.234,4.877  c-4.665,5.725-7.477,13.091-7.477,21.132v6.025l6.54-3.225l6.446,3.225l6.447-3.225l6.448,3.225l6.316-3.225l6.462,3.225l6.42-3.225  l6.419,3.225l6.421-3.225l6.473,3.225v-6.025c0-8.046-2.815-15.416-7.485-21.14l9.215-4.869l2.133-11.558l12.616-3.625V0  L95.743,11.83z M33.146,52.724c-4.145,0-7.507-3.361-7.507-7.508c0-4.145,3.362-7.507,7.507-7.507c4.146,0,7.507,3.362,7.507,7.507  C40.652,49.362,37.292,52.724,33.146,52.724z M66.885,52.724c-4.147,0-7.509-3.361-7.509-7.508c0-4.145,3.361-7.507,7.509-7.507  c4.145,0,7.505,3.362,7.505,7.507C74.39,49.362,71.029,52.724,66.885,52.724z"></path></g><g id="SvgjsG1615" featureKey="6sJQsk-0" transform="matrix(1.600000023841858,0,0,1.600000023841858,-0.9920013427734375,160.45600204467775)" fill="#111111"><path d="M16.7 12.719999999999999 l-1.22 1.06 l0 6.22 l-2.14 0 l0 -10.86 l-3.56 6.7 l-2.24 0 l-3.56 -6.7 l0 10.86 l-2.14 0 l0 -6.22 l-1.22 -1.06 l1.22 -1.08 l0 -6.3 l2.34 0 l4.48 8.26 l4.48 -8.26 l2.34 0 l0 6.3 z M33.052 12.719999999999999 l-1.22 1.06 l0 3.78 l-2.74 2.44 l-5.2 0 l-2.76 -2.44 l0 -3.78 l-1.22 -1.06 l1.22 -1.08 l0 -3.86 l2.76 -2.44 l5.2 0 l2.74 2.44 l0 3.86 z M29.692 16.56 l0 -7.76 l-1.52 -1.32 l-3.36 0 l-1.52 1.32 l0 7.76 l1.52 1.3 l3.36 0 z M49.604 12.719999999999999 l-1.22 1.06 l0 6.22 l-2.14 0 l-6.12 -10.86 l0 10.86 l-2.14 0 l0 -6.22 l-1.22 -1.06 l1.22 -1.08 l0 -6.3 l2.26 0 l6 10.56 l0 -10.56 l2.14 0 l0 6.3 z M64.496 17.56 l-2.76 2.44 l-4.98 0 l-2.76 -2.44 l0 -2.66 l2.14 0 l0 1.64 l1.52 1.32 l3.16 0 l1.52 -1.32 l0 -1.64 l-1.52 -1.3 l-3.76 0 l-2.76 -2.46 l0 -3.36 l2.76 -2.44 l4.66 0 l2.76 2.44 l0 2.44 l-2.14 0 l0 -1.52 l-1.42 -1.22 l-3.04 0 l-1.42 1.22 l0 1.52 l1.42 1.24 l3.86 0 l2.76 2.44 l0 3.66 z M79.12799999999999 7.48 l-4.26 0 l0 4.18 l1.22 1.06 l-1.22 1.06 l0 6.22 l-2.14 0 l0 -6.22 l-1.22 -1.06 l1.22 -1.06 l0 -4.18 l-4.28 0 l0 -2.14 l10.68 0 l0 2.14 z M92.79999999999998 19.98 l-8.86 0 l0 -6.2 l-1.22 -1.08 l1.22 -1.06 l0 -6.3 l8.86 0 l0 2.14 l-6.72 0 l0 4.16 l5.18 0 l0 2.14 l-5.18 0 l0 4.06 l6.72 0 l0 2.14 z M108.07199999999999 20 l-2.32 0 l-3.06 -6.2 l-2.62 0 l0 6.2 l-2.14 0 l0 -6.2 l-1.22 -1.08 l1.22 -1.06 l0 -6.32 l7.08 0 l2.38 2.76 l0 2.94 l-2.38 2.76 z M105.252 10.12 l0 -1.12 l-1.26 -1.5 l-3.92 0 l0 4.16 l3.92 0 z M122.864 17.56 l-2.76 2.44 l-4.98 0 l-2.76 -2.44 l0 -2.66 l2.14 0 l0 1.64 l1.52 1.32 l3.16 0 l1.52 -1.32 l0 -1.64 l-1.52 -1.3 l-3.76 0 l-2.76 -2.46 l0 -3.36 l2.76 -2.44 l4.66 0 l2.76 2.44 l0 2.44 l-2.14 0 l0 -1.52 l-1.42 -1.22 l-3.04 0 l-1.42 1.22 l0 1.52 l1.42 1.24 l3.86 0 l2.76 2.44 l0 3.66 z"></path></g>
			</g>
		</svg>
	