<?xml version="1.0" encoding="UTF-8"?>
<svg id="Layer_2" data-name="Layer 2" xmlns="http://www.w3.org/2000/svg" viewBox="0 0 100.77 78.08">
  <defs>
    <style>
      .cls-1, .cls-2, .cls-3, .cls-4 {
        stroke-width: 0px;
      }

      .cls-2 {
        fill: #0a1f26;
      }

      .cls-3 {
        fill: #d33e48;
      }

      .cls-4 {
        fill: #e1c6ce;
      }
    </style>
  </defs>
  <g id="Layer_1-2" data-name="Layer 1">
    <g>
      <path class="cls-3" d="m40.78,2.1c-.98.88-6.09,2.97-4.87,7.86.49,1.99,2.23,4.89,8.12,4.65.95-.04,3.04-1.11,1.84-2.03,0,0-3.53-2.43-3.66-4.71C41.79.47,50.22-.76,52.76.36c-.44.6-2.18,4.05-1.22,5.59,1.42,2.27,2.4,1.57,4.06,1.57,3.86-3.49,11.76-1.9,14.83.17,3.86,2.62,5.88,6.59,6.5,13.27,1.09,11.71-3.25,15.36.15,21.08,2.05,3.44,1.05,3.54,6.13,5.81.76.34,3.26.7,3.26.7.35,1.13-3.4,5.74-6.37,5.1-2.17-.47-2.51-1.97-2.51.92,0,3.74,3,5.76,6.96,5.76,4.58,0,7.73-3.55,10.27-9.49.53-1.24.49-1.77.49-1.77,2.17-.22,5.46,4.99,5.46,8.89,0,11.47-14.56,19.41-28.71,16.78-5.3-.99-8.7-5.05-15.91-3.48-1.58.34-8.57,6.18-14.97,2.43-4.2,3.28-12.99,4.39-18.53,4.39-9.96,0-18.95-4.5-21.71-12.76-2.62-7.87.33-16.52,7.29-20.11-.32,1.76-.68,6.66.65,8.05,5.69,5.94,12.99,2.38,11.67-4.25,0,0-1.92.26-4.12-1.04-2.26-1.33-2.15-5.28-2.15-5.26,0,0,9.85,3.26,11.66-7.61-.53.21-1.06.3-1.59.3-2.37,0-6.21-2.58-6.21-5,0-.33.12-.59.34-.77,0,0,2.3.99,4.31.67,1.39-.22,5.93-2.48,5.8-5.86-.13-3.21-4.06-5.01-4.06-9.6,0-2.32.54-4.18,1.62-6.29,1.87-3.61,7.31-7.16,14.62-6.46Z"/>
      <path class="cls-4" d="m41.27,33.57c-.43-2.14-2.85-3.46-5.4-2.95s-4.29,2.66-3.86,4.8c.43,2.14,2.85,3.46,5.4,2.95s4.29-2.66,3.86-4.8Z"/>
      <path class="cls-4" d="m61.6,35.39c-.6,3.21-4.33,4.99-9.22,4.07-4.88-.92-7.52-3.47-6.92-6.68.6-3.21,5.05-5.07,9.93-4.16,4.88.92,6.81,3.56,6.2,6.77Z"/>
      <path class="cls-1" d="m39.95,33.67c0,1.18-.91,2.14-2.04,2.14s-2.04-.96-2.04-2.14.91-2.14,2.04-2.14,2.04.96,2.04,2.14Z"/>
      <path class="cls-1" d="m55.07,33.46c0,1.18-.91,2.14-2.04,2.14s-2.04-.96-2.04-2.14.91-2.14,2.04-2.14,2.04.96,2.04,2.14Z"/>
      <g>
        <path class="cls-2" d="m34.62,49.19c-1.36.57-2.33,2.2-2.33,3.96,0,.75.13,1.65.88,1.65,0-.08-.01-.15-.01-.23,0-1.23.64-2.76,1.48-3.57-.04-.36-.07-.66-.07-.85,0-.32.02-.64.05-.95Z"/>
        <path class="cls-2" d="m56.44,50.06c-2.74,0-5.65-1.25-5.86-1.25-2.02,0-2.84,2.92-4.6,2.92-1.16,0-5.04-1.21-7.89-2.12-.25.27-.57.68-.88,1.22,2.21.86,5.78,2.72,8.2,2.72,3.23,0,4.19-2.58,5.63-2.97,1.45-.39,2.9.59,5.28.57.42,0,.83-.04,1.23-.08-.05-.35-.12-.7-.21-1.03-.29.02-.59.04-.9.04Z"/>
        <path class="cls-2" d="m60.36,49.37c0,.11,0,.23,0,.35,0,.2-.03.43-.07.66,1.27-.48,2.24-1.1,2.59-1.61,2.31-3.28,1.14-.74-2.53.6Z"/>
        <path class="cls-4" d="m36.51,49.11c-.67-.21-1.32-.16-1.89.08-.04.32-.05.63-.05.95,0,.19.02.49.07.85.26,2.29,1.24,7.12,1.45,3.63.1-1.64.6-2.9,1.12-3.8.32-.54.64-.95.88-1.22-.58-.18-1.12-.36-1.58-.5Z"/>
        <path class="cls-4" d="m60.36,49.37c-.87.32-1.88.57-3.02.65.1.33.17.68.21,1.03.08.58.1,1.18.1,1.78,0,.84.05.85.05,1.63,0,.23-.11,1.27.16,1.27.2,0,2.07-3.21,2.44-5.36.04-.23.07-.46.07-.66,0-.12,0-.24,0-.35Z"/>
      </g>
    </g>
  </g>
</svg>