<?xml version="1.0" encoding="UTF-8"?>
<svg id="Layer_2" data-name="Layer 2" xmlns="http://www.w3.org/2000/svg" viewBox="0 0 93.26 104.9">
  <defs>
    <style>
      .cls-1 {
        fill: #a32a1a;
      }

      .cls-1, .cls-2, .cls-3, .cls-4, .cls-5, .cls-6, .cls-7, .cls-8 {
        stroke-width: 0px;
      }

      .cls-2 {
        fill: #ffe0a8;
      }

      .cls-4 {
        fill: #c64026;
      }

      .cls-5 {
        fill: #f9ffd5;
      }

      .cls-6 {
        fill: #ff5e34;
      }

      .cls-7 {
        fill: #070f1b;
      }

      .cls-8 {
        fill: #560000;
      }
    </style>
  </defs>
  <g id="Layer_1-2" data-name="Layer 1">
    <g>
      <path class="cls-4" d="m10.38,29.2c-1.67-4.6-2.12-9.68-1.18-14.67,4.01,4.63,8.49,5.61,13.15,5.8,1.99-1.41,4.13-2.64,6.39-3.68C20.28,11.45,9.27,12.24,4.77.45,1.92,5.28.48,10.71.48,16.11c0,10.63,4.8,17.51,8.95,20.81.61-1.65,1.34-3.25,2.2-4.78-.45-.92-.87-1.89-1.24-2.93Z"/>
      <path class="cls-4" d="m93.26,15.66c0-5.4-1.44-10.83-4.3-15.66-4.68,12.26-16.39,10.92-24.96,16.86,1.51.71,2.96,1.51,4.35,2.39,5.74.02,11.33-.2,16.21-5.85.94,5,.49,10.07-1.18,14.67-.65,1.79-1.42,3.39-2.27,4.84.76,1.44,1.41,2.93,1.94,4.46,4.37-2.82,10.21-9.98,10.21-21.72Z"/>
      <path class="cls-1" d="m81.1,32.91c.85-1.44,1.62-3.04,2.27-4.84,1.67-4.6,2.13-9.67,1.18-14.67-4.88,5.64-10.47,5.87-16.21,5.85,5.45,3.47,9.87,8.17,12.76,13.66Z"/>
      <path class="cls-1" d="m22.35,20.33c-4.65-.19-9.14-1.17-13.15-5.8-.94,5-.49,10.07,1.18,14.67.38,1.04.8,2.02,1.24,2.93,2.58-4.62,6.26-8.64,10.72-11.8Z"/>
      <path class="cls-4" d="m4.57,70.55c-1.36,10.2.35,20.68.35,20.68-2.48,2.45-4.67,5.93-4.86,7.09-.25,1.48.27,3.52.7,3.9.26.23.86-.19,1.63-1.11.32-.39.51-.71.77-1.39.67-1.76.24.85.56,2.24.26,1.11.19.88.82,2.72.16.48.67.27,1.52-1.11.93-1.49,1.23-2.61,1.68-4.03.22-.7.22,2.56,1.14,3.87,1.11,1.58,2.69-3.86,1.97-6.37-.57-2-1.82-4.01-1.82-4.01-.51-1.56-2.77-17.18.39-26.08.38-1.06.73-2.06,1.06-3.02-.82-2.09-1.48-4.24-1.97-6.42-1.79,4.19-3.41,9.08-3.94,13.05Z"/>
      <path class="cls-4" d="m91.34,93.82c-.19-1.16-2.38-4.64-4.86-7.09,0,0,1.71-10.48.35-20.68-.41-3.1-1.49-6.76-2.8-10.21-.47,2.28-1.14,4.54-2,6.75,3.09,8.92.85,24.37.34,25.93,0,0-1.24,2.01-1.82,4.01-.72,2.51.86,7.96,1.97,6.37.92-1.31.92-4.57,1.14-3.87.45,1.42.75,2.55,1.68,4.03.86,1.38,1.36,1.58,1.52,1.11.63-1.84.57-1.61.82-2.72.32-1.39-.12-4,.56-2.24.26.68.45,1,.77,1.39.76.92,1.37,1.34,1.63,1.11.43-.38.95-2.42.7-3.9Z"/>
      <path class="cls-1" d="m59.93,96.03c0,9.87-4.14,7.35,8.1,7.35,1.47,0,2.95.02,4.42.05.02,0,.03,0,.05,0,1.87,0,3.96-1.12,2.21-2.89-1.12-1.14-4.54-1.57-5.64-1.57-7.37,0-5.64,3.2-5.64-1.64,0-2.71.67-6,.67-8.34s-.3-4.21-.7-5.28c-2,1.04-4.13,1.91-6.36,2.6,2.23,3,2.89,6.34,2.89,9.72Z"/>
      <path class="cls-1" d="m26.19,88.75c0,2.33.67,5.63.67,8.34,0,4.84,1.72,1.64-5.64,1.64-1.1,0-4.52.43-5.64,1.57-1.74,1.77.35,2.89,2.21,2.89.02,0,.03,0,.05,0,1.47-.03,2.95-.05,4.42-.05,12.24,0,8.1,2.52,8.1-7.35,0-3.36.65-6.67,2.85-9.66-2.23-.73-4.32-1.67-6.28-2.77-.42,1.05-.75,2.96-.75,5.4Z"/>
      <path class="cls-6" d="m83.04,37.38c-.54-1.54-1.19-3.03-1.94-4.46-2.89-5.5-7.31-10.2-12.76-13.66-1.39-.88-2.84-1.68-4.35-2.39-5.34-2.52-11.41-3.96-17.85-3.96s-12.17,1.36-17.41,3.75c-2.27,1.04-4.41,2.27-6.39,3.68-4.46,3.16-8.14,7.19-10.72,11.8-.86,1.53-1.59,3.13-2.2,4.78-1.28,3.48-1.98,7.2-1.98,11.07,0,3.17.36,6.38,1.06,9.51.49,2.18,1.15,4.33,1.97,6.42,3.14,7.99,8.69,15.05,16.45,19.43,1.95,1.1,4.04,2.04,6.28,2.77,3.61,1.19,7.58,1.86,11.89,1.9,4.27.03,8.26-.58,11.93-1.7,2.24-.68,4.36-1.55,6.36-2.6,8.81-4.59,15.22-12.4,18.63-21.13.86-2.2,1.53-4.46,2-6.75.54-2.61.82-5.24.82-7.85,0-3.7-.63-7.26-1.8-10.61Z"/>
      <ellipse class="cls-2" cx="29.77" cy="31.51" rx="8.51" ry="7.48"/>
      <ellipse class="cls-2" cx="55.84" cy="30.98" rx="7.97" ry="7.81"/>
      <path class="cls-3" d="m31.45,29.56c0,1.42-1.3,2.58-2.91,2.58s-2.91-1.15-2.91-2.58,1.3-2.58,2.91-2.58,2.91,1.15,2.91,2.58Z"/>
      <path class="cls-3" d="m56.33,29.5c0,1.28-1.17,2.32-2.62,2.32s-2.62-1.04-2.62-2.32,1.17-2.32,2.62-2.32,2.62,1.04,2.62,2.32Z"/>
      <g>
        <path class="cls-5" d="m35.21,55.02c.69,1.08.23-.77,3.75-6.29-1.96.15-4.16.32-6.7.43,1,2.94,2.48,5.12,2.95,5.86Z"/>
        <path class="cls-5" d="m58.29,51.42c.06.26.31,1.09.52,1.09.37,0,1.98-2.14,2.51-5.15-1.33.35-2.61.6-3.87.78.22.68.48,1.74.84,3.28Z"/>
        <path class="cls-5" d="m49.46,48.52c1.04,2.41,2.58,6.13,2.99,6.65,2.3-2.16,3.24-5.24,3.83-6.89-2.27.24-4.49.26-6.82.24Z"/>
        <path class="cls-5" d="m40.47,48.62c1.14,2.57,2.17,6.12,2.68,6.25,1.64.41,3.49-3.75,4.52-6.37-1.13-.02-2.3-.04-3.52-.04-1.13,0-2.35.07-3.68.16Z"/>
        <path class="cls-5" d="m27.4,55.45c0-2.18.65-4.38,1.87-6.2-1.54.02-3.2,0-4.98-.05.39,3,3.11,7.28,3.11,6.26Z"/>
      </g>
      <g>
        <path class="cls-7" d="m41.8,63.72c3.05-3.72,8.84-3.6,13.49-3.6,1.37,0,2.5.15,3.43.46,1.83-4.41,3.07-9.3,4.06-13.64-.49.16-.98.29-1.46.42-.53,3.01-2.13,5.15-2.51,5.15-.22,0-.46-.83-.52-1.09-.36-1.54-.62-2.6-.84-3.28-.4.06-.79.1-1.18.14-.59,1.64-1.53,4.73-3.83,6.89-.42-.52-1.95-4.24-2.99-6.65-.59,0-1.18-.01-1.79-.02-1.02,2.62-2.88,6.78-4.52,6.37-.51-.13-1.54-3.68-2.68-6.25-.49.03-.99.07-1.51.11-3.52,5.52-3.06,7.37-3.75,6.29-.47-.74-1.95-2.92-2.95-5.86-.95.04-1.94.07-2.99.08-1.22,1.82-1.87,4.03-1.87,6.2,0,1.02-2.72-3.26-3.11-6.26-1.06-.04-2.17-.09-3.33-.17,1.78,4.07,3.5,9.25,6.11,13.8,2.37-.93,5.36-1.15,7.76-1.15,2.53,0,4.97.03,6.98,2.04Z"/>
        <path class="cls-8" d="m42.82,73.56c8.09.4,12.83-5.6,15.91-12.99-.93-.31-2.06-.46-3.43-.46-4.65,0-10.44-.12-13.49,3.6-2.01-2.01-4.45-2.04-6.98-2.04-2.39,0-5.39.22-7.76,1.15,3.24,5.66,7.87,10.35,15.75,10.74Z"/>
      </g>
    </g>
  </g>
</svg>