<?xml version="1.0" encoding="UTF-8"?>
<svg id="Layer_2" data-name="Layer 2" xmlns="http://www.w3.org/2000/svg" viewBox="0 0 98.23 174.24">
  <defs>
    <style>
      .cls-1 {
        fill: #ffe0a8;
      }

      .cls-1, .cls-2, .cls-3, .cls-4, .cls-5, .cls-6, .cls-7 {
        stroke-width: 0px;
      }

      .cls-2 {
        fill: #097f9a;
      }

      .cls-4 {
        fill: #056777;
      }

      .cls-5 {
        fill: #012430;
      }

      .cls-6 {
        fill: #ffefc9;
      }

      .cls-7 {
        fill: #8b0f00;
      }
    </style>
  </defs>
  <g id="Layer_1-2" data-name="Layer 1">
    <g>
      <g>
        <path class="cls-4" d="m23.68,100.86c-.65,6.74,1.84,26.3,1.84,26.3-1.68,1.55-2.29,3.39-2.39,4.15-.13.97.3,2.35.62,2.61.19.16.61-.1,1.12-.69.22-.25.34-.45.51-.9.42-1.15.19.57.46,1.51.22.75.16.59.67,1.83.13.32.48.2,1.05-.69.61-.96.79-1.7,1.07-2.63.14-.46.24,1.71.93,2.61.84,1.09,1.79-2.48,1.2-4.18-.47-1.35-1.41-2.72-1.41-2.72-.69-2.05-2.04-19.55-1.49-25.74.64-7.31,2.32-11.57,3.81-13.94-.86-1.65-1.69-3.25-2.48-4.73-1.83,3.8-4.71,9.26-5.48,17.21Z"/>
        <path class="cls-4" d="m76.34,136.56c-12.65,0-5.1,7.29-4.99-31.23-1.91,2.59-4.36,4.46-7.6,5.61,1.03,4.37,1.86,9.27,1.86,14.04,0,7.61-2.09,14.88-8.72,19.07,11.16,3.62,15.36,5.26,27.14,5.26,8.31,0,11.49-2.01,13.99-2.01,1.99,0-10.25-10.74-21.68-10.74Z"/>
        <path class="cls-4" d="m43.89,107.14c-.06.01-.12.03-.18.04,1.51,6.56,2.52,13.42,2.52,20.13,0,20.8-7.46,26.96-7.46,39.89,0,8.38,3.12-1.05,5.48-3.6,1.18-1.28,4.72,9.64,8.14,10.65,3.26-1.22,2.55-11.61,2.55-11.61,3.2,1.3,5.64,5.6,5.64,2.99,0-10.09-9.97-16.91-9.97-25.6,0-1.74.2-3.51.2-5.28,0-.94,1.49-13.82,2.49-22.47-3.45-.34-6.57-2.28-9.41-5.12Z"/>
      </g>
      <g>
        <path class="cls-4" d="m77.18,74.65s-.02-.06-.03-.09c0,0,0,.04,0,.11.01,0,.03-.02.04-.02Z"/>
        <path class="cls-4" d="m83.97,117.28s.69-7.43.04-14.17c-.71-7.32-3.51-18.22-5.47-24.5-.59.33-1.22.67-1.87,1-.18,1.72-.4,3.75-.67,5.92,1.48,4.96,3.2,11.59,3.85,19.04.54,6.19,1,11.57.3,13.61,0,0-.94,1.37-1.41,2.72-.59,1.69.37,5.26,1.2,4.18.69-.9.79-3.07.93-2.61.28.93.45,1.67,1.07,2.63.57.89.92,1.01,1.05.69.5-1.24.45-1.08.67-1.83.27-.93.04-2.66.46-1.51.16.45.29.65.51.9.51.59.93.85,1.12.69.32-.27.74-1.64.62-2.61-.1-.76-.71-2.6-2.39-4.15Z"/>
        <path class="cls-2" d="m70.33,82.44c-4.19,1.59-8.8,2.78-13.24,2.98-.74.03-1.47.04-2.2.02-.12,0-.25-.01-.37-.02-3.89-.24-7.04-1.98-9.15-3.67.39-2.38,1.09-5.39,2.04-8.17,4.67,2.86,9.32,5.57,15.5,5.57,2.17,0,4.23-.37,6.17-.95,3.01-.89,5.71-2.28,8.05-3.53,0-.06,0-.11,0-.11.96-5,14.84-22.14,14.84-40.74,0-11.25-6.29-30.67-22.54-33.82,2.61,2.14,3.52,5.3,3.52,8.54,0,16.64-9.26,28.96-28.5,27.32-28.5-2.43-23.41-27.8-23.24-28.97-.77-.15-18.26,8.5-21.07,31.59-1.95,16.05,15.02,27.83,24.2,37.6,1.45,1.54,3.04,4.28,4.8,7.56.79,1.48,1.62,3.07,2.48,4.73,3.41,6.53,7.43,13.94,12.25,18.77,2.84,2.84,5.96,4.79,9.41,5.12.35.03.71.07,1.07.07,3.71,0,6.79-.46,9.38-1.39,3.24-1.15,5.69-3.03,7.6-5.61.12-.16.24-.31.35-.48,1.9-2.77,3.38-11.83,4.31-19.33.27-2.17.49-4.2.67-5.92-1.92.99-4.06,1.97-6.34,2.83Z"/>
        <path class="cls-7" d="m83.2,71.91c-1.55.27-3.58,1.43-6.02,2.73-.01,0-.03.02-.04.02-2.33,1.25-5.03,2.63-8.05,3.53-1.94.57-4,.95-6.17.95-6.18,0-10.84-2.72-15.5-5.57-.95,2.77-1.65,5.78-2.04,8.17,2.11,1.69,5.25,3.43,9.15,3.67.12,0,.25.02.37.02.73.03,1.46.02,2.2-.02,4.44-.19,9.05-1.39,13.24-2.98,2.28-.86,4.42-1.84,6.34-2.83.65-.33,1.28-.67,1.87-1,3.87-2.17,6.49-4.23,6.81-5.13.19-.53-.71-1.82-2.15-1.56Z"/>
      </g>
      <path class="cls-5" d="m45.38,81.74c-.16.97-.27,1.85-.32,2.55-.29,4.01.38,8.08,4.38,8.08,0,0,.73-.05,1.92-.12,1.01-2.29,2.1-4.55,3.16-6.84-3.89-.24-7.04-1.98-9.15-3.67Z"/>
      <path class="cls-1" d="m54.25,56.33c0,4.3-4.11,7.79-9.18,7.79s-9.18-3.49-9.18-7.79,4.11-7.79,9.18-7.79,9.18,3.49,9.18,7.79Z"/>
      <path class="cls-1" d="m54.25,54.92c0,3.97,3.34,7.18,7.47,7.18s7.47-3.22,7.47-7.18-3.34-7.18-7.47-7.18-7.47,3.22-7.47,7.18Z"/>
      <path class="cls-5" d="m70.98,42.86c-.65.08-1.17.53-1.55.98-4.56,5.34-11.46,8.11-18.24,8.11-.57,0-21.78-5.19-12.04-5.19.84,0,1.68.03,2.52.03l-4.23-2.87c.74-.1,1.48-.14,2.22-.14,6.26,0,1.65.27,1.45-3.69,3.73,2.16,8.28,4.52,12.62,4.52,8.13,0,11.65-9.37,11.65-5.51,0,1.02-2.77,7.83,1.68,2.05-.65,1.22-1.22,2.45-1.88,3.67,1.96-.57,3.84-1.31,5.79-1.96Z"/>
      <path class="cls-3" d="m65.63,52.96c0,1.77-1.41,3.21-3.14,3.21s-3.14-1.44-3.14-3.21,1.41-3.21,3.14-3.21,3.14,1.44,3.14,3.21Z"/>
      <path class="cls-3" d="m51.34,54.5c0,1.77-1.41,3.21-3.14,3.21s-3.14-1.44-3.14-3.21,1.41-3.21,3.14-3.21,3.14,1.44,3.14,3.21Z"/>
      <path class="cls-6" d="m56.03,70.44c.51-.14.77,1.68,1.64,2.31.34.25,1.19-2.41,2.18-3.2.94,1.09,1.31,3.14,1.6,3.2,1.04.19,1.27-3.3,1.78-3.3.38,0,2.65,3.45,2.98,3.92.18.26.82-2.52.87-5.09.02-1.22,0-2.02,0-2.86-.3-.55-.68-.93-1.2-.93-.05,0-5.25,1.78-8.28,1.78-1.74,0-4.02-.63-4.19-.63-1.31,0-2.51,1.05-3.56,2.67.67,2.63,1.92,5.14,3.26,7.42.9-1.91,2.52-5.17,2.92-5.28Z"/>
      <path class="cls-5" d="m59.54,88.64c1.49,0,.56-2.99,1.82-2.99.43,0,1.72,3.05,2.62,3.05.02,0,.04,0,.06,0,1.89-.13,1.8-4.33,2.86-4.33,1,0,2.31,3.93,2.77,6.73.52-.03.83-.05.83-.05,3.66-1.21.77-6.87.32-7.68-.18-.31-.34-.62-.48-.93-4.19,1.59-8.8,2.78-13.24,2.98.76,1.56,1.7,3.23,2.45,3.23Z"/>
      <path class="cls-5" d="m69.09,78.2c-.38-2.97.07-5.76-.97-9.42-.26-.91-.52-2.4-1.04-3.37,0,.83.02,1.64,0,2.86-.04,2.57-.69,5.35-.87,5.09-.33-.47-2.6-3.92-2.98-3.92-.51,0-.74,3.5-1.78,3.3-.29-.05-.66-2.1-1.6-3.2-.99.79-1.84,3.45-2.18,3.2-.87-.63-1.13-2.45-1.64-2.31-.4.11-2.02,3.37-2.92,5.28-1.34-2.28-2.59-4.79-3.26-7.42-.93,1.42-1.74,3.29-2.42,5.28,4.67,2.86,9.32,5.57,15.5,5.57,2.17,0,4.23-.37,6.17-.95Z"/>
      <path class="cls-6" d="m66.9,84.37c-1.06,0-.98,4.2-2.86,4.33-.02,0-.04,0-.06,0-.9,0-2.19-3.05-2.62-3.05-1.26,0-.33,2.99-1.82,2.99-.75,0-1.69-1.67-2.45-3.23-.74.03-1.47.04-2.2.02-.12,0-.25-.01-.37-.02-1.07,2.29-2.15,4.55-3.16,6.84,4.44-.28,15.25-.96,18.31-1.15-.45-2.8-1.76-6.73-2.77-6.73Z"/>
    </g>
  </g>
</svg>