<?xml version="1.0" encoding="UTF-8"?>
<svg id="Layer_2" data-name="Layer 2" xmlns="http://www.w3.org/2000/svg" viewBox="0 0 100.17 82.61">
  <defs>
    <style>
      .cls-1 {
        fill: #ffe0a8;
      }

      .cls-1, .cls-2, .cls-3, .cls-4, .cls-5, .cls-6, .cls-7 {
        stroke-width: 0px;
      }

      .cls-3 {
        fill: #00eac6;
      }

      .cls-4 {
        fill: #f9ffd5;
      }

      .cls-5 {
        fill: #02c19d;
      }

      .cls-6 {
        fill: #070f1b;
      }

      .cls-7 {
        fill: #02826a;
      }
    </style>
  </defs>
  <g id="Layer_1-2" data-name="Layer 1">
    <g>
      <g>
        <path class="cls-7" d="m99.17,5.99c-6.58,0-7.56,10.39-13,10.39-1.69,0-3.55-.72-5.38-1.28.1,1.48.11,2.93.11,4.19,0,1.72-.32,4.07-.81,6.81,1.95.83,4.53.98,6.96.98,6.36,0,11.93-2.05,11.93-8.79,0-2.07-.35-4.24-.35-6.35,0-5.83,3.04-5.96.53-5.96Z"/>
        <path class="cls-7" d="m19.58,11.37c-2.19.27-4.55.98-6.53.71C7.66,11.37,8.06.94,1.54.08c-2.49-.33.51.2-.26,5.98-.28,2.08-.91,4.19-1.18,6.25-.89,6.68,4.37,9.44,10.67,10.28,2.97.39,6.17.59,8.34-.57-.02-.79-.03-1.59-.03-2.4,0-3.18.11-5.94.51-8.23Z"/>
        <path class="cls-5" d="m8.12,52.43c0,1.89.18,1.19.63,1.5,1.25.84,2.55.84,3.59.84.95,0,1.17-.53,1.17-1.39,0-.51-.07-1.11-.07-1.65,0-.71.07-1.18.51-1.18.52,0,1.37.53,1.61.53,0,0,0-4.29,5.82-9.5-.3-2.05-.64-4.13-.97-6.29-3.47,3.28-12.29,8.67-12.29,17.15Z"/>
        <path class="cls-5" d="m81.02,52.63c.25,0,1.1-.53,1.61-.53.43,0,.51.47.51,1.18,0,.54-.07,1.13-.07,1.65,0,.86.22,1.39,1.17,1.39,1.04,0,2.34,0,3.59-.84.46-.3.63.39.63-1.49,0-7.42-6.75-12.47-10.77-15.82-.41,2.04-.81,4.12-1.17,6.23,4.49,4.62,4.5,8.23,4.5,8.23Z"/>
        <path class="cls-3" d="m80.79,15.1c-.35-4.94-1.85-10.29-8.39-10.4-3.07-.05-7.35,3.7-17.06,3.7S34.09,3.63,27.93,3.63c-5.29,0-7.48,2.76-8.35,7.74-.4,2.29-.51,5.05-.51,8.23,0,.82.01,1.62.03,2.4.14,4.93.69,9.25,1.3,13.28.33,2.16.67,4.24.97,6.29.52,3.53.93,6.96.93,10.56,0,16.26.72,30.48.72,30.48h5.16c4.5-6.51,12.33-9.44,19.14-9.44,9.93,0,18.69,5.8,23.44,9.44h5.12s.55-2.85-.89-18.78c-.51-5.68.32-12.62,1.51-19.43.37-2.1.77-4.19,1.17-6.23.88-4.41,1.77-8.57,2.39-12.07.49-2.75.81-5.09.81-6.81,0-1.26,0-2.71-.11-4.19Z"/>
      </g>
      <path class="cls-5" d="m50.49,23.5c0,4.61-3.85,8.34-8.59,8.34s-8.59-3.74-8.59-8.34,3.05-8.34,7.79-8.34,9.39,3.74,9.39,8.34Z"/>
      <path class="cls-5" d="m70.13,23.5c0,4.75-3.97,8.59-8.88,8.59s-8.88-3.85-8.88-8.59,3.18-8.6,8.08-8.6,9.68,3.85,9.68,8.6Z"/>
      <path class="cls-1" d="m49.2,22.89c0,3.65-3.22,6.61-7.19,6.61s-7.19-2.96-7.19-6.61,2.42-6.61,6.39-6.61,7.99,2.96,7.99,6.61Z"/>
      <path class="cls-1" d="m54.42,23.19c0,4.04,3.18,7.31,7.1,7.31s7.1-3.27,7.1-7.31-3.98-7.31-7.9-7.31-6.3,3.27-6.3,7.31Z"/>
      <path class="cls-2" d="m46.01,22.21c0,1.79-1.57,3.24-3.5,3.24s-3.5-1.45-3.5-3.24,1.57-3.25,3.5-3.25,3.5,1.45,3.5,3.25Z"/>
      <path class="cls-2" d="m66.47,21.79c0,1.79-1.57,3.25-3.5,3.25s-3.5-1.45-3.5-3.25,1.57-3.24,3.5-3.24,3.5,1.45,3.5,3.24Z"/>
      <g>
        <path class="cls-6" d="m69.02,63.43c-.68-3.49-1.88-4.69-1.88-9.18,0-4.16,1.34-8.65,1.34-10.43,0-2.28-.84-4.48-3.92-3.97-.17.03-.34.06-.51.1-.34,4.66-2.02,8.2-3.23,10.6-4.83-11.01-7.27.21-7.27.21-.71.07-1.73-1.93-3.32-5.97-3.45,4.69-3.06,5.4-4.93,6.18,0,0-1.98-3.96-3.84-6.39-1.28,1.95-2.07,4.03-2.74,6.45-1.17,4.2-3.85-4.85-5.4-10.67-.3-.14-.6-.29-.9-.45-.29-.16-.54-.44-.88-.52-.18-.04-.35-.06-.52-.06-1.25,0-2.97,1.15-2.97,2.34,0,.02,1.17,3.49,1.17,6.64,0,5.19,1.05,7.71-1.86,14.31-1.48,3.37,2.63,4.86,6.93,5.5-.09-1.1-.14-2.21-.14-3.32,0-12.26,2.53-1.97,6.37-.57,1.27.46,3.32-4.39,3.75-5.14,8.65,16.51,5.45-9.97,11.79,6.44l3.75-6.83s.03,0,.04.02c1.96,2.83,3.43,6.02,3.61,9.19,1.78-.08,3.06-.17,3.46-.26,1.97-.42,2.44-2.65,2.13-4.21Z"/>
        <path class="cls-4" d="m59.78,58.68l-3.75,6.83c-6.34-16.41-3.14,10.07-11.79-6.44-.43.75-2.47,5.6-3.75,5.14-3.84-1.4-6.37-11.68-6.37.57,0,1.1.06,2.21.14,3.32,2.32.34,4.92.44,7.21.44,0,0,14.92-.31,21.96-.64-.18-3.17-1.65-6.36-3.61-9.19-.01-.02-.03-.02-.04-.02Z"/>
        <path class="cls-4" d="m38.69,51.03c.67-2.42,1.46-4.5,2.74-6.45,1.86,2.42,3.84,6.39,3.84,6.39,1.87-.78,1.48-1.49,4.93-6.18,1.59,4.04,2.61,6.04,3.32,5.97,0,0,2.44-11.22,7.27-.21,1.21-2.4,2.89-5.94,3.23-10.6-3.08.67-7.67,2.91-16.73,2.91-3.53,0-9.04-.14-14.01-2.51,1.55,5.82,4.23,14.87,5.4,10.67Z"/>
      </g>
    </g>
  </g>
</svg>